<?xml version="1.0" encoding="UTF-8" standalone="no"?>
<!-- Created with Inkscape (http://www.inkscape.org/) -->
<svg
   xmlns:dc="http://purl.org/dc/elements/1.1/"
   xmlns:cc="http://creativecommons.org/ns#"
   xmlns:rdf="http://www.w3.org/1999/02/22-rdf-syntax-ns#"
   xmlns:svg="http://www.w3.org/2000/svg"
   xmlns="http://www.w3.org/2000/svg"
   xmlns:xlink="http://www.w3.org/1999/xlink"
   xmlns:sodipodi="http://sodipodi.sourceforge.net/DTD/sodipodi-0.dtd"
   xmlns:inkscape="http://www.inkscape.org/namespaces/inkscape"
   width="22"
   height="22"
   id="svg2"
   sodipodi:version="0.32"
   inkscape:version="0.45+devel"
   version="1.0"
   sodipodi:docbase="/home/dobey/Projects/gnome-icon-theme/scalable/emblems"
   sodipodi:docname="emblem-new.svg"
   inkscape:output_extension="org.inkscape.output.svg.inkscape">
  <defs
     id="defs4">
    <linearGradient
       id="linearGradient1886">
      <stop
         style="stop-color:#fce94f;stop-opacity:1;"
         offset="0"
         id="stop1888" />
      <stop
         style="stop-color:white;stop-opacity:1"
         offset="1"
         id="stop1890" />
    </linearGradient>
    <linearGradient
       id="linearGradient2760">
      <stop
         style="stop-color:#fffbd8;stop-opacity:1;"
         offset="0"
         id="stop2762" />
      <stop
         id="stop2872"
         offset="0.63291138"
         style="stop-color:#fdf293;stop-opacity:1;" />
      <stop
         style="stop-color:#fce94f;stop-opacity:1;"
         offset="1"
         id="stop2764" />
    </linearGradient>
    <radialGradient
       inkscape:collect="always"
       xlink:href="#linearGradient2760"
       id="radialGradient2766"
       cx="4.8321624"
       cy="1.09216"
       fx="4.8321624"
       fy="1.09216"
       r="15.17675"
       gradientTransform="matrix(1.928522,0,0,1.843022,-1.841365,2.4769)"
       gradientUnits="userSpaceOnUse" />
  </defs>
  <sodipodi:namedview
     id="base"
     pagecolor="#ffffff"
     bordercolor="#666666"
     borderopacity="1.0"
     inkscape:pageopacity="0.0"
     inkscape:pageshadow="2"
     inkscape:zoom="1"
     inkscape:cx="14.389413"
     inkscape:cy="11.399894"
     inkscape:document-units="px"
     inkscape:current-layer="layer1"
     width="22px"
     height="22px"
     inkscape:showpageshadow="false"
     gridspacingx="0.5px"
     gridspacingy="0.5px"
     gridempspacing="2"
     showgrid="false"
     inkscape:window-width="1048"
     inkscape:window-height="693"
     inkscape:window-x="126"
     inkscape:window-y="49"
     showborder="true" />
  <metadata
     id="metadata7">
    <rdf:RDF>
      <cc:Work
         rdf:about="">
        <dc:format>image/svg+xml</dc:format>
        <dc:type
           rdf:resource="http://purl.org/dc/dcmitype/StillImage" />
        <cc:license
           rdf:resource="http://creativecommons.org/licenses/GPL/2.0/" />
        <dc:creator>
          <cc:Agent>
            <dc:title>Lapo Calamandrei</dc:title>
          </cc:Agent>
        </dc:creator>
      </cc:Work>
      <cc:License
         rdf:about="http://creativecommons.org/licenses/GPL/2.0/">
        <cc:permits
           rdf:resource="http://web.resource.org/cc/Reproduction" />
        <cc:permits
           rdf:resource="http://web.resource.org/cc/Distribution" />
        <cc:requires
           rdf:resource="http://web.resource.org/cc/Notice" />
        <cc:permits
           rdf:resource="http://web.resource.org/cc/DerivativeWorks" />
        <cc:requires
           rdf:resource="http://web.resource.org/cc/ShareAlike" />
        <cc:requires
           rdf:resource="http://web.resource.org/cc/SourceCode" />
      </cc:License>
    </rdf:RDF>
  </metadata>
  <g
     inkscape:label="Livello 1"
     inkscape:groupmode="layer"
     id="layer1">
    <path
       sodipodi:type="star"
       style="opacity:1;fill:url(#radialGradient2766);fill-opacity:1;stroke:#edd400;stroke-width:1.65788817;stroke-linecap:butt;stroke-linejoin:miter;stroke-miterlimit:4;stroke-dasharray:none;stroke-dashoffset:0;stroke-opacity:1"
       id="path1869"
       sodipodi:sides="5"
       sodipodi:cx="11"
       sodipodi:cy="8.125"
       sodipodi:r1="15.377032"
       sodipodi:r2="8.9001045"
       sodipodi:arg1="-1.5707963"
       sodipodi:arg2="-0.9424778"
       inkscape:flatsided="false"
       inkscape:rounded="0.18352206"
       inkscape:randomized="0"
       d="M 11,-7.2520323 C 12.781445,-7.2520323 14.790132,-0.12244253 16.23135,0.92466417 C 17.672569,1.9717709 25.07393,1.6789818 25.624427,3.3732361 C 26.174923,5.0674903 20.014999,9.1810294 19.464502,10.875284 C 18.914006,12.569538 21.479611,19.518174 20.038392,20.565281 C 18.597174,21.612387 12.781444,17.025105 11,17.025105 C 9.2185557,17.025104 3.4028256,21.612387 1.9616069,20.56528 C 0.52038819,19.518174 3.0859941,12.569538 2.5354976,10.875284 C 1.9850011,9.1810293 -4.1749232,5.0674896 -3.6244266,3.3732353 C -3.0739301,1.6789811 4.3274311,1.9717708 5.7686498,0.92466421 C 7.2098686,-0.12244246 9.2185561,-7.2520323 11,-7.2520323 z"
       transform="matrix(0.6999648,0,0,0.6895531,3.3247271,6.481324)" />
    <path
       sodipodi:type="inkscape:offset"
       inkscape:radius="-1.6296071"
       inkscape:original="M 11 -7.25 C 9.2185557 -7.25 7.222469 -0.10960666 5.78125 0.9375 C 4.3400313 1.9846066 -3.0745035 1.6807459 -3.625 3.375 C -4.1754966 5.0692543 1.9807534 9.1807461 2.53125 10.875 C 3.0817465 12.569254 0.52753133 19.515393 1.96875 20.5625 C 3.4099688 21.609607 9.2185557 17.03125 11 17.03125 C 12.781444 17.03125 18.590031 21.609606 20.03125 20.5625 C 21.472469 19.515393 18.918253 12.569255 19.46875 10.875 C 20.019247 9.1807459 26.175496 5.0692541 25.625 3.375 C 25.074503 1.6807458 17.659969 1.9846068 16.21875 0.9375 C 14.777531 -0.1096067 12.781445 -7.25 11 -7.25 z "
       style="opacity:1;fill:none;fill-opacity:1;stroke:#ffffff;stroke-width:1.65817571;stroke-linecap:butt;stroke-linejoin:round;stroke-miterlimit:4;stroke-dasharray:none;stroke-dashoffset:0;stroke-opacity:1"
       id="path2758"
       d="M 11,-5.21875 C 10.636802,-4.6774878 10.190634,-3.7798756 9.75,-2.84375 C 9.3093659,-1.9076244 8.8557492,-0.91021019 8.40625,-0.03125 C 7.9567508,0.84771019 7.6781089,1.5756896 6.75,2.25 C 5.821823,2.92436 5.0066225,2.9687107 4.03125,3.125 C 3.0558775,3.2812893 1.9648325,3.4009376 0.9375,3.53125 C -0.089832472,3.6615624 -1.0596755,3.8214327 -1.6875,4 C -1.6796471,4.0102291 -1.6956142,4.0208717 -1.6875,4.03125 C -1.2862988,4.5444 -0.59564259,5.2284162 0.15625,5.9375 C 0.90814259,6.6465838 1.7111404,7.3628503 2.40625,8.0625 C 3.1013596,8.7621497 3.7401395,9.286699 4.09375,10.375 C 4.4469486,11.462033 4.2438662,12.244175 4.09375,13.21875 C 3.9436338,14.193325 3.7215738,15.234258 3.53125,16.25 C 3.3409262,17.265742 3.1784997,18.255037 3.15625,18.90625 C 3.1699886,18.901407 3.1734739,18.911353 3.1875,18.90625 C 3.7990394,18.683769 4.656311,18.24521 5.5625,17.75 C 6.468689,17.25479 7.432676,16.725537 8.3125,16.28125 C 9.192324,15.836963 9.856617,15.40625 11,15.40625 C 12.143383,15.40625 12.807676,15.836964 13.6875,16.28125 C 14.567324,16.725536 15.531311,17.25479 16.4375,17.75 C 17.343689,18.24521 18.20096,18.683769 18.8125,18.90625 C 18.826526,18.911353 18.830011,18.901407 18.84375,18.90625 C 18.8215,18.255037 18.659074,17.265742 18.46875,16.25 C 18.278426,15.234258 18.056366,14.193326 17.90625,13.21875 C 17.756134,12.244174 17.553051,11.462033 17.90625,10.375 C 18.259861,9.2866993 18.89864,8.7621497 19.59375,8.0625 C 20.28886,7.3628503 21.091857,6.6465838 21.84375,5.9375 C 22.595643,5.2284162 23.286299,4.5444 23.6875,4.03125 C 23.695614,4.0208717 23.679647,4.0102291 23.6875,4 C 23.059676,3.8214327 22.089832,3.6615624 21.0625,3.53125 C 20.035168,3.4009376 18.944122,3.2812893 17.96875,3.125 C 16.993378,2.9687107 16.178177,2.92436 15.25,2.25 C 14.321891,1.5756895 14.043249,0.84771019 13.59375,-0.03125 C 13.144251,-0.91021019 12.690634,-1.9076244 12.25,-2.84375 C 11.809366,-3.7798756 11.363198,-4.6774879 11,-5.21875 z"
       transform="matrix(0.6999648,0,0,0.6895531,3.3247271,6.481324)" />
  </g>
</svg>
